HIERARCHY
ROOT root
{
	OFFSET	0	13.1	24.9
	CHANNELS 6  Xposition Yposition Zposition Xrotation Yrotation Zrotation
	JOINT spine_1
	{
		OFFSET	0	9.99999	0
		CHANNELS 3  Xrotation Yrotation Zrotation
		JOINT spine_2
		{
			OFFSET	0	112	-10
			CHANNELS 3  Xrotation Yrotation Zrotation
			JOINT spine_3
			{
				OFFSET	0	206.5	19.3
				CHANNELS 3  Xrotation Yrotation Zrotation
				JOINT spine_4
				{
					OFFSET	0	110.4	14.6
					CHANNELS 3  Xrotation Yrotation Zrotation
					JOINT neck_1
					{
						OFFSET	0	71.8	-50.3
						CHANNELS 3  Xrotation Yrotation Zrotation
						JOINT neck_2
						{
							OFFSET	0	86.2	-25.8
							CHANNELS 3  Xrotation Yrotation Zrotation
							JOINT head_ee
							{
								OFFSET	0	179.8	-8.7
								CHANNELS 3  Xrotation Yrotation Zrotation
								End Site
								{
									OFFSET	1	0	0
								}
							}
						}
					}
					JOINT left_clavicle
					{
						OFFSET	-43.2	22.4	-70.8
						CHANNELS 3  Xrotation Yrotation Zrotation
						JOINT left_shoulder
						{
							OFFSET	-93.9	-5.79999	48.7
							CHANNELS 3  Xrotation Yrotation Zrotation
							JOINT left_elbow
							{
								OFFSET	-291.4	-30.8	15.2
								CHANNELS 3  Xrotation Yrotation Zrotation
								JOINT left_lowarm_twist
								{
									OFFSET	-110.7	-3.89999	13.6
									CHANNELS 3  Xrotation Yrotation Zrotation
									JOINT left_hand
									{
										OFFSET	-110.7	-3.89999	13.6
										CHANNELS 3  Xrotation Yrotation Zrotation
										JOINT left_ee
										{
											OFFSET	-80.8	-5.10001	12.1
											CHANNELS 3  Xrotation Yrotation Zrotation
											End Site
											{
												OFFSET	1	0	0
											}
										}
									}
								}
							}
						}
					}
					JOINT right_clavicle
					{
						OFFSET	43.2	22.4	-70.8
						CHANNELS 3  Xrotation Yrotation Zrotation
						JOINT right_shoulder
						{
							OFFSET	93.9	-5.79999	48.7
							CHANNELS 3  Xrotation Yrotation Zrotation
							JOINT right_elbow
							{
								OFFSET	291.4	-30.8	15.2
								CHANNELS 3  Xrotation Yrotation Zrotation
								JOINT right_lowarm_twist
								{
									OFFSET	110.7	-3.89999	13.6
									CHANNELS 3  Xrotation Yrotation Zrotation
									JOINT right_hand
									{
										OFFSET	110.7	-3.89999	13.6
										CHANNELS 3  Xrotation Yrotation Zrotation
										JOINT right_ee
										{
											OFFSET	80.8	-5.10001	12.1
											CHANNELS 3  Xrotation Yrotation Zrotation
											End Site
											{
												OFFSET	1	0	0
											}
										}
									}
								}
							}
						}
					}
				}
			}
		}
	}
	JOINT left_hip
	{
		OFFSET	-82.8	-127.5	0.300001
		CHANNELS 3  Xrotation Yrotation Zrotation
		JOINT left_knee
		{
			OFFSET	-28.2	-396.7	2.2
			CHANNELS 3  Xrotation Yrotation Zrotation
			JOINT left_ankle
			{
				OFFSET	-11.7	-411.3	35.4
				CHANNELS 3  Xrotation Yrotation Zrotation
				JOINT left_toes
				{
					OFFSET	0	-60	-88.6
					CHANNELS 3  Xrotation Yrotation Zrotation
					JOINT left_foot_ee
					{
						OFFSET	-22.5	-16.5	-42.2
						CHANNELS 3  Xrotation Yrotation Zrotation
						End Site
						{
							OFFSET	1	0	0
						}
					}
				}
			}
		}
	}
	JOINT right_hip
	{
		OFFSET	82.8	-127.5	0.300001
		CHANNELS 3  Xrotation Yrotation Zrotation
		JOINT right_knee
		{
			OFFSET	28.2	-396.7	2.2
			CHANNELS 3  Xrotation Yrotation Zrotation
			JOINT right_ankle
			{
				OFFSET	11.7	-411.3	35.4
				CHANNELS 3  Xrotation Yrotation Zrotation
				JOINT right_toes
				{
					OFFSET	0	-60	-88.6
					CHANNELS 3  Xrotation Yrotation Zrotation
					JOINT right_foot_ee
					{
						OFFSET	22.5	-16.5	-42.2
						CHANNELS 3  Xrotation Yrotation Zrotation
						End Site
						{
							OFFSET	1	0	0
						}
					}
				}
			}
		}
	}
}
MOTION
Frames: 13
Frame Time: 0.02
3177.02 653.055 -1669.29 -19.0599547181 83.5153417191 12.7026742541 0.596123 0.718649 3.11357 0.601366 0.519169 3.15294 0.632189 -0.119725 3.19311 0.618169 0.385811 3.172 -5.45481 6.40698 1.21529 -5.43465 10.9062 2.38308 -0.0 0.0 -0.0 -2.17629 19.4162 -0.965531 -14.3722 -9.7148 73.8567 0.208423 -5.89485 0.0107312 -23.6911 -1.40619 2.66126 -0.189942 24.928 8.81215 -0.0 0.0 -0.0 12.9939 26.6542 -25.5846 21.4514 -10.2547 -72.5178 1.83288 42.2339 -0.707924 -42.6702 3.23951 -4.24577 -2.40029 -13.3078 9.63364 0.0 0.0 0.0 30.1566 11.4287 2.6563 -1.42114 0.0559018 0.210925 -14.2015 13.1368 2.13358 -7.91725 0.0 0.0 -0.0 0.0 -0.0 -24.893 10.2102 3.16204 1.68393 0.072997 0.248079 39.3651 -5.21888 4.80245 -11.2236 0.0 0.0 0.0 0.0 0.0 
3154.24765198 652.166 -1664.58203412 -22.0199541619 83.7311099397 15.6303412017 0.783243 0.546456 3.12854 0.788622 0.346373 3.15693 0.809482 -0.280317 3.16348 0.795587 0.222555 3.16806 -6.22927 6.29624 1.48445 -6.21744 10.5653 2.69687 -0.0 0.0 -0.0 -1.95452 19.3583 -0.64509 -14.6336 -9.55702 73.4131 0.210217 -5.94522 0.0109163 -24.1003 -1.43982 2.70149 0.211323 26.2033 11.5594 -0.0 0.0 -0.0 13.0701 26.0224 -25.8365 20.3208 -9.59396 -72.1095 1.82746 42.1495 -0.704282 -42.6498 3.23728 -4.24441 -2.06718 -11.4253 8.44174 0.0 0.0 0.0 30.1215 11.0735 3.38897 -2.94611 0.110041 0.438693 -16.477 14.1732 2.48383 -10.0833 0.0 0.0 -0.0 0.0 -0.0 -26.8597 10.2394 3.77457 2.90546 0.130505 0.426671 37.7611 -6.58156 4.65991 -10.2258 0.0 0.0 0.0 0.0 0.0 
3134.45697902 651.695 -1658.98560087 -26.4746900219 83.6696199572 19.9127020543 1.09767 0.452324 3.20479 1.10335 0.247586 3.22705 1.11853 -0.373767 3.21489 1.10414 0.138382 3.23357 -6.50444 6.21911 0.848906 -6.49766 10.9077 2.06653 -0.0 0.0 -0.0 -1.46288 18.868 0.0117009 -14.557 -9.55526 72.367 0.194561 -5.50528 0.00935435 -21.7872 -1.25357 2.47099 0.765332 26.1608 14.7263 -0.0 0.0 -0.0 13.2925 26.077 -26.3451 19.4708 -9.18187 -71.6379 1.92855 43.6872 -0.77313 -42.4806 3.21876 -4.23307 -1.23797 -5.03333 6.03287 0.0 0.0 0.0 30.1501 10.5112 3.84289 -6.74054 0.218267 1.01085 -7.52462 11.6627 1.11928 -8.9965 0.0 0.0 -0.0 0.0 -0.0 -27.7984 10.264 4.31419 5.12188 0.244544 0.747496 32.8138 -6.76464 4.18187 -10.4451 0.0 0.0 0.0 0.0 0.0 
3109.50945298 654.636 -1652.31729409 -23.1152033616 83.7469486818 16.5589575041 0.955969 0.464041 3.21001 0.961664 0.258949 3.233 0.977756 -0.371661 3.222 0.963298 0.141582 3.24025 -8.20059 5.83792 2.39715 -8.19844 9.2208 3.65872 -0.0 0.0 -0.0 -1.3064 18.3253 0.165919 -14.3887 -9.55792 72.0958 0.215424 -6.09141 0.0114622 -21.3118 -1.21646 2.4227 1.11116 22.7895 15.7229 -0.0 0.0 -0.0 13.2057 26.3699 -26.1087 17.7566 -7.50255 -70.6438 1.98103 44.4556 -0.809631 -40.6482 3.02036 -4.10682 -0.470572 -0.289996 3.01906 0.0 0.0 0.0 29.6344 9.47819 4.44798 -10.1972 0.283688 1.53716 -3.45711 12.3831 0.510925 -9.29066 0.0 0.0 -0.0 0.0 -0.0 -29.4222 10.489 5.07572 4.68153 0.220898 0.684102 29.1561 -8.18252 3.79937 -11.1568 0.0 0.0 0.0 0.0 0.0 
3043.32020992 655.177 -1637.43402828 -17.4967047152 83.6823932594 11.1576361325 0.942417 0.563928 3.10756 0.947715 0.365143 3.1371 0.969246 -0.249199 3.14842 0.955502 0.25091 3.14829 -7.59827 5.88242 1.12919 -7.60274 10.1555 2.36824 -0.0 0.0 -0.0 0.176425 16.8819 2.25397 -12.7452 -10.2014 71.145 0.207031 -5.85575 0.0105887 -17.8564 -0.958996 2.06285 1.36452 22.6195 17.2122 -0.0 0.0 -0.0 12.5192 23.8173 -24.804 12.9049 0.0938336 -70.4055 2.08366 45.9018 -0.882435 -33.9281 2.32977 -3.59135 1.54961 9.17848 -6.57755 0.0 0.0 0.0 27.9424 7.50098 6.08053 -19.4224 0.302063 2.95097 15.3188 13.7481 -2.14705 -10.5777 0.0 0.0 -0.0 0.0 -0.0 -30.3517 10.9407 6.75179 0.572384 0.0239925 0.0845588 14.6847 -11.3628 2.05575 -9.11217 0.0 0.0 0.0 0.0 0.0 
3003.83957047 659.27 -1630.16423996 -16.8886730971 83.2620887092 10.4999397997 0.911332 0.568243 3.12845 0.916701 0.368122 3.15822 0.9386 -0.252063 3.16959 0.92467 0.251419 3.16964 -6.93308 4.9474 1.66472 -6.92749 7.98443 2.66112 -0.0 0.0 -0.0 1.08638 16.2704 3.61433 -11.1419 -11.856 69.9415 0.309639 -8.72061 0.0236098 -14.8586 -0.753618 1.7387 1.49131 23.2971 18.1874 -0.0 0.0 -0.0 11.9335 22.1312 -23.6142 9.24403 5.16456 -70.1256 2.11785 46.3675 -0.907087 -29.3506 1.8962 -3.19578 2.7119 12.4053 -13.1003 0.0 0.0 0.0 25.407 5.76541 7.71509 -21.252 0.278657 3.23072 26.5765 16.2031 -3.56199 -10.0166 0.0 0.0 -0.0 0.0 -0.0 -27.6889 11.5319 7.83742 -6.64115 -0.215917 -0.995781 9.94962 -17.207 1.43337 -10.5913 0.0 0.0 0.0 0.0 0.0 
3003.69836291 659.27 -1630.79459269 -16.3908523788 83.0623529396 9.99855363312 0.911332 0.568243 3.12845 0.916701 0.368122 3.15822 0.9386 -0.252063 3.16959 0.92467 0.251419 3.16964 -6.93308 4.9474 1.66472 -6.92749 7.98443 2.66112 -0.0 0.0 -0.0 1.08638 16.2704 3.61433 -11.1419 -11.856 69.9415 0.309639 -8.72061 0.0236098 -14.8586 -0.753618 1.7387 1.49131 23.2971 18.1874 -0.0 0.0 -0.0 11.9335 22.1312 -23.6142 9.24403 5.16456 -70.1256 2.11785 46.3675 -0.907087 -29.3506 1.8962 -3.19578 2.7119 12.4053 -13.1003 0.0 0.0 0.0 25.407 5.76541 7.71509 -21.252 0.278657 3.23072 26.5765 16.2031 -3.56199 -10.0166 0.0 0.0 -0.0 0.0 -0.0 -27.6889 11.5319 7.83742 -6.64115 -0.215917 -0.995781 9.94962 -17.207 1.43337 -10.5913 0.0 0.0 0.0 0.0 0.0 
2977.98521345 664.254 -1625.71689653 -9.7179904207 83.0643148432 3.6402112018 0.811107 0.504134 2.99016 0.816027 0.312929 3.01615 0.834065 -0.284183 3.01899 0.8214 0.195952 3.02599 -6.44067 4.63996 1.67165 -6.43244 7.37479 2.57943 -0.0 0.0 -0.0 1.52812 15.9757 4.28585 -10.1467 -12.4671 70.3434 0.397999 -11.1534 0.038861 -13.1488 -0.64419 1.5492 1.75331 23.1917 19.7704 -0.0 0.0 -0.0 12.0533 20.0127 -24.0554 5.76625 8.45514 -68.2388 2.10664 46.2156 -0.898981 -28.6113 1.82922 -3.12872 3.22903 14.1857 -15.8479 0.0 0.0 0.0 23.5197 4.43047 8.12009 -23.0573 0.246817 3.5059 30.2364 15.2346 -3.96312 -9.40446 0.0 0.0 -0.0 0.0 -0.0 -26.3202 11.6159 7.71948 -11.9303 -0.304508 -1.80227 8.41709 -19.8384 1.22898 -12.3642 0.0 0.0 0.0 0.0 0.0 
2934.80377673 668.152 -1614.24612616 -0.500922104043 83.3563067689 -4.55124042348 0.791639 0.332125 2.51253 0.795135 0.171626 2.52856 0.803746 -0.328587 2.513 0.79494 0.072286 2.53334 -7.45548 3.60568 -0.034866 -7.45717 6.7372 0.720028 -0.0 0.0 -0.0 2.72199 16.7272 6.20596 -8.31629 -13.7228 70.3145 0.590246 -16.2986 0.0845234 -11.7715 -0.560202 1.39427 1.85056 25.7544 21.0483 -0.0 0.0 -0.0 11.8424 18.3191 -23.682 -0.163462 10.8124 -66.0408 2.06341 45.6223 -0.867929 -25.4961 1.55669 -2.83692 3.60311 18.2668 -16.4134 0.0 0.0 0.0 18.9438 1.80234 7.96566 -22.5332 0.256955 3.42611 34.4419 16.3792 -4.42084 -8.68225 0.0 0.0 -0.0 0.0 -0.0 -21.113 12.0539 6.91589 -25.8228 -0.181265 -3.92519 11.6416 -25.3412 1.72543 -14.5772 0.0 0.0 0.0 0.0 0.0 
2934.54352334 668.152 -1615.40414723 -0.481187588966 83.0825367794 -4.57111388544 0.791639 0.332125 2.51253 0.795135 0.171626 2.52856 0.803746 -0.328587 2.513 0.79494 0.072286 2.53334 -7.45548 3.60568 -0.034866 -7.45717 6.7372 0.720028 -0.0 0.0 -0.0 2.72199 16.7272 6.20596 -8.31629 -13.7228 70.3145 0.590246 -16.2986 0.0845234 -11.7715 -0.560202 1.39427 1.85056 25.7544 21.0483 -0.0 0.0 -0.0 11.8424 18.3191 -23.682 -0.163462 10.8124 -66.0408 2.06341 45.6223 -0.867929 -25.4961 1.55669 -2.83692 3.60311 18.2668 -16.4134 0.0 0.0 0.0 18.9438 1.80234 7.96566 -22.5332 0.256955 3.42611 34.4419 16.3792 -4.42084 -8.68225 0.0 0.0 -0.0 0.0 -0.0 -21.113 12.0539 6.91589 -25.8228 -0.181265 -3.92519 11.6416 -25.3412 1.72543 -14.5772 0.0 0.0 0.0 0.0 0.0 
2916.64107977 676.35 -1608.97957056 5.07928776029 83.485415148 -9.20097471586 0.81678 0.241578 2.0676 0.819152 0.109551 2.07878 0.823787 -0.300327 2.05989 0.817867 0.0286908 2.08146 -7.50371 3.60944 -0.44187 -7.50463 7.0364 0.31844 -0.0 0.0 -0.0 3.21869 17.3985 7.00363 -6.76044 -14.4694 70.6727 0.715459 -19.5152 0.123038 -10.6259 -0.493204 1.26391 2.08779 25.8738 22.5313 -0.0 0.0 -0.0 11.6699 17.3303 -23.3428 -3.18337 11.7774 -65.4882 2.05466 45.5005 -0.861678 -26.4814 1.64116 -2.93079 3.91193 19.186 -18.0687 0.0 0.0 0.0 17.1461 0.696613 7.78204 -23.4398 0.23896 3.56406 37.78 17.3599 -4.76579 -7.19923 0.0 0.0 -0.0 0.0 -0.0 -17.8847 12.3453 6.29747 -32.3295 0.0521856 -4.89594 17.6841 -27.0929 2.59198 -14.5266 0.0 0.0 0.0 0.0 0.0 
2898.97180256 681.007 -1599.17580209 4.91448298112 84.6249966051 -8.37799010648 0.859213 0.133586 1.73885 0.860895 0.0226847 1.74383 0.861986 -0.318666 1.71462 0.857886 -0.0439171 1.74342 -7.87766 3.70622 -0.540592 -7.88045 7.29612 0.263541 -0.0 0.0 -0.0 3.65293 18.0269 7.68812 -5.19779 -15.0867 71.087 0.810393 -21.8726 0.156592 -10.1971 -0.468799 1.21478 2.14552 26.7421 23.0902 -0.0 0.0 -0.0 11.312 16.267 -22.5811 -5.63389 11.9538 -65.0949 1.99562 44.6657 -0.819868 -26.2341 1.6198 -2.90736 4.05549 20.3567 -18.4334 0.0 0.0 0.0 15.7889 -0.0132429 7.78882 -23.4381 0.238994 3.56381 37.9854 17.7215 -4.79191 -7.20758 0.0 0.0 -0.0 0.0 -0.0 -15.5475 13.6091 6.42881 -36.9818 0.285998 -5.5711 21.2536 -28.2709 3.09471 -14.6457 0.0 0.0 0.0 0.0 0.0 
2883.58759157 686.549 -1587.51960266 12.1442774255 86.4286323539 -14.6689245177 0.862328 -0.050081 1.28099 0.863231 -0.131485 1.2752 0.860443 -0.378282 1.22489 0.858394 -0.180103 1.26925 -8.19775 3.67884 0.0183959 -8.20326 6.85909 0.830136 -0.0 0.0 -0.0 4.07467 18.2304 8.33868 -3.58217 -14.7961 72.2006 0.884261 -23.6549 0.185178 -9.29261 -0.41854 1.11057 2.17709 26.8948 23.3188 -0.0 0.0 -0.0 11.364 15.0436 -22.7495 -7.08032 9.41847 -63.9077 1.80999 41.876 -0.692593 -25.3645 1.54552 -2.82426 4.10425 22.4396 -17.6234 0.0 0.0 0.0 13.9123 -0.415372 7.37063 -20.8218 0.284965 3.165 33.1016 19.1159 -4.32611 -8.21506 0.0 0.0 -0.0 0.0 -0.0 -11.2623 14.0884 6.5107 -40.2861 0.485071 -6.03829 25.5068 -27.0372 3.61559 -14.7415 0.0 0.0 0.0 0.0 0.0 
